<svg width="348" height="132" viewBox="0 0 348 132" fill="none" xmlns="http://www.w3.org/2000/svg">
<path d="M136.241 74.1558C134.133 74.1558 132.235 73.7293 130.544 72.8763C128.878 71.9988 127.567 70.7924 126.611 69.2569C125.68 67.7214 125.215 65.9787 125.215 64.0288C125.215 62.079 125.68 60.3363 126.611 58.8008C127.567 57.2653 128.878 56.0711 130.544 55.218C132.235 54.3406 134.133 53.9019 136.241 53.9019C138.323 53.9019 140.136 54.3406 141.68 55.218C143.248 56.0711 144.387 57.3019 145.098 58.9105L140.651 61.2869C139.622 59.4833 138.139 58.5815 136.204 58.5815C134.709 58.5815 133.472 59.0689 132.492 60.0439C131.512 61.0188 131.022 62.3471 131.022 64.0288C131.022 65.7106 131.512 67.0389 132.492 68.0138C133.472 68.9888 134.709 69.4762 136.204 69.4762C138.164 69.4762 139.646 68.5744 140.651 66.7708L145.098 69.1837C144.387 70.7436 143.248 71.9623 141.68 72.8397C140.136 73.7171 138.323 74.1558 136.241 74.1558Z" fill="white"/>
<path d="M156.374 53.9019C159.437 53.9019 161.789 54.633 163.431 56.0954C165.072 57.5334 165.893 59.7148 165.893 62.6396V73.8634H160.527V71.4139C159.449 73.2419 157.44 74.1558 154.5 74.1558C152.981 74.1558 151.658 73.8999 150.531 73.3881C149.428 72.8763 148.583 72.1694 147.995 71.2676C147.407 70.3658 147.113 69.3422 147.113 68.1966C147.113 66.3687 147.799 64.9307 149.171 63.8826C150.567 62.8346 152.711 62.3106 155.603 62.3106H160.16C160.16 61.0675 159.78 60.117 159.021 59.4589C158.261 58.7765 157.122 58.4352 155.603 58.4352C154.549 58.4352 153.508 58.6059 152.479 58.9471C151.474 59.2639 150.616 59.7026 149.906 60.2632L147.848 56.2782C148.926 55.5227 150.212 54.9377 151.707 54.5234C153.226 54.109 154.782 53.9019 156.374 53.9019ZM155.933 70.3171C156.913 70.3171 157.783 70.0977 158.543 69.659C159.302 69.1959 159.841 68.5257 160.16 67.6482V65.6375H156.227C153.875 65.6375 152.699 66.4052 152.699 67.9407C152.699 68.6719 152.981 69.2569 153.544 69.6956C154.132 70.1099 154.929 70.3171 155.933 70.3171Z" fill="white"/>
<path d="M196.405 53.9019C198.879 53.9019 200.839 54.633 202.285 56.0954C203.755 57.5334 204.49 59.7026 204.49 62.603V73.8634H198.757V63.4805C198.757 61.9206 198.426 60.7629 197.765 60.0073C197.127 59.2274 196.209 58.8374 195.008 58.8374C193.66 58.8374 192.595 59.2761 191.811 60.1535C191.027 61.0066 190.635 62.2862 190.635 63.9923V73.8634H184.901V63.4805C184.901 60.3851 183.652 58.8374 181.152 58.8374C179.829 58.8374 178.776 59.2761 177.992 60.1535C177.208 61.0066 176.816 62.2862 176.816 63.9923V73.8634H171.082V54.1943H176.558V56.461C177.293 55.6323 178.188 54.9986 179.241 54.5599C180.319 54.1212 181.495 53.9019 182.769 53.9019C184.166 53.9019 185.428 54.1821 186.555 54.7427C187.682 55.2789 188.589 56.0711 189.275 57.1191C190.083 56.0954 191.1 55.3033 192.325 54.7427C193.575 54.1821 194.935 53.9019 196.405 53.9019Z" fill="white"/>
<path d="M229.213 64.102C229.213 64.1751 229.176 64.6869 229.103 65.6375H214.145C214.414 66.8561 215.051 67.8189 216.056 68.5257C217.06 69.2325 218.31 69.5859 219.804 69.5859C220.834 69.5859 221.74 69.4397 222.524 69.1472C223.333 68.8303 224.08 68.3429 224.766 67.6848L227.817 70.9752C225.954 73.0956 223.235 74.1558 219.657 74.1558C217.428 74.1558 215.455 73.7293 213.74 72.8763C212.025 71.9988 210.702 70.7924 209.771 69.2569C208.84 67.7214 208.374 65.9787 208.374 64.0288C208.374 62.1034 208.828 60.3729 209.734 58.8374C210.665 57.2775 211.927 56.0711 213.52 55.218C215.137 54.3406 216.938 53.9019 218.922 53.9019C220.858 53.9019 222.61 54.3162 224.178 55.1449C225.746 55.9736 226.971 57.1678 227.853 58.7277C228.76 60.2632 229.213 62.0546 229.213 64.102ZM218.959 58.2159C217.661 58.2159 216.57 58.5815 215.688 59.3127C214.806 60.0439 214.267 61.0432 214.071 62.3106H223.811C223.615 61.0675 223.075 60.0804 222.193 59.3492C221.311 58.5937 220.233 58.2159 218.959 58.2159Z" fill="white"/>
<path d="M238.506 56.7901C239.192 55.8395 240.111 55.1205 241.263 54.633C242.439 54.1456 243.786 53.9019 245.306 53.9019V59.1664C244.669 59.1177 244.24 59.0933 244.019 59.0933C242.378 59.0933 241.091 59.5564 240.16 60.4826C239.229 61.3844 238.764 62.7493 238.764 64.5772V73.8634H233.03V54.1943H238.506V56.7901Z" fill="white"/>
<path d="M258.267 74.1558C256.184 74.1558 254.31 73.7293 252.644 72.8763C251.002 71.9988 249.716 70.7924 248.785 69.2569C247.854 67.7214 247.388 65.9787 247.388 64.0288C247.388 62.079 247.854 60.3363 248.785 58.8008C249.716 57.2653 251.002 56.0711 252.644 55.218C254.31 54.3406 256.184 53.9019 258.267 53.9019C260.349 53.9019 262.212 54.3406 263.853 55.218C265.495 56.0711 266.781 57.2653 267.712 58.8008C268.643 60.3363 269.109 62.079 269.109 64.0288C269.109 65.9787 268.643 67.7214 267.712 69.2569C266.781 70.7924 265.495 71.9988 263.853 72.8763C262.212 73.7293 260.349 74.1558 258.267 74.1558ZM258.267 69.4762C259.737 69.4762 260.937 68.9888 261.869 68.0138C262.824 67.0145 263.302 65.6862 263.302 64.0288C263.302 62.3715 262.824 61.0553 261.869 60.0804C260.937 59.0811 259.737 58.5815 258.267 58.5815C256.797 58.5815 255.584 59.0811 254.628 60.0804C253.673 61.0553 253.195 62.3715 253.195 64.0288C253.195 65.6862 253.673 67.0145 254.628 68.0138C255.584 68.9888 256.797 69.4762 258.267 69.4762Z" fill="#F11818"/>
<path d="M298.264 53.9019C300.738 53.9019 302.698 54.633 304.144 56.0954C305.614 57.5334 306.349 59.7026 306.349 62.603V73.8634H300.616V63.4805C300.616 61.9206 300.285 60.7629 299.623 60.0073C298.986 59.2274 298.068 58.8374 296.867 58.8374C295.519 58.8374 294.454 59.2761 293.669 60.1535C292.885 61.0066 292.493 62.2862 292.493 63.9923V73.8634H286.76V63.4805C286.76 60.3851 285.51 58.8374 283.011 58.8374C281.688 58.8374 280.635 59.2761 279.851 60.1535C279.067 61.0066 278.674 62.2862 278.674 63.9923V73.8634H272.941V54.1943H278.417V56.461C279.152 55.6323 280.047 54.9986 281.1 54.5599C282.178 54.1212 283.354 53.9019 284.628 53.9019C286.025 53.9019 287.287 54.1821 288.414 54.7427C289.541 55.2789 290.448 56.0711 291.134 57.1191C291.942 56.0954 292.959 55.3033 294.184 54.7427C295.434 54.1821 296.793 53.9019 298.264 53.9019Z" fill="white"/>
<path d="M319.463 53.9019C322.526 53.9019 324.878 54.633 326.52 56.0954C328.161 57.5334 328.982 59.7148 328.982 62.6396V73.8634H323.616V71.4139C322.538 73.2419 320.529 74.1558 317.589 74.1558C316.07 74.1558 314.747 73.8999 313.62 73.3881C312.517 72.8763 311.672 72.1694 311.084 71.2676C310.496 70.3658 310.202 69.3422 310.202 68.1966C310.202 66.3687 310.888 64.9307 312.26 63.8826C313.657 62.8346 315.8 62.3106 318.692 62.3106H323.249C323.249 61.0675 322.869 60.117 322.11 59.4589C321.35 58.7765 320.211 58.4352 318.692 58.4352C317.638 58.4352 316.597 58.6059 315.568 58.9471C314.563 59.2639 313.706 59.7026 312.995 60.2632L310.937 56.2782C312.015 55.5227 313.301 54.9377 314.796 54.5234C316.315 54.109 317.871 53.9019 319.463 53.9019ZM319.022 70.3171C320.002 70.3171 320.872 70.0977 321.632 69.659C322.391 69.1959 322.93 68.5257 323.249 67.6482V65.6375H319.316C316.964 65.6375 315.788 66.4052 315.788 67.9407C315.788 68.6719 316.07 69.2569 316.633 69.6956C317.222 70.1099 318.018 70.3171 319.022 70.3171Z" fill="white"/>
<path d="M346.924 72.9128C346.361 73.3272 345.663 73.644 344.83 73.8634C344.021 74.0584 343.163 74.1558 342.257 74.1558C339.905 74.1558 338.079 73.5587 336.781 72.3644C335.507 71.1701 334.87 69.4153 334.87 67.0999V59.0202H331.819V54.633H334.87V49.8438H340.603V54.633H345.528V59.0202H340.603V67.0267C340.603 67.8554 340.811 68.5013 341.228 68.9644C341.669 69.4031 342.281 69.6225 343.065 69.6225C343.972 69.6225 344.744 69.3787 345.381 68.8913L346.924 72.9128Z" fill="white"/>
<path d="M45.5859 6.66047C54.35 1.81629 65.0072 1.8163 73.7713 6.66048L104.435 23.6091C113.645 28.6999 119.357 38.3574 119.357 48.8387V80.8475C119.357 91.3289 113.645 100.986 104.435 106.077L73.7713 123.026C65.0072 127.87 54.35 127.87 45.5859 123.026L14.9224 106.077C5.71205 100.986 0 91.3289 0 80.8476V48.8387C0 38.3574 5.71207 28.6999 14.9224 23.6091L45.5859 6.66047Z" fill="#5076FF"/>
<path d="M53.028 37.3856C57.1646 35.1007 62.1935 35.1006 66.3301 37.3856L80.8088 45.3832C85.1595 47.7864 87.8581 52.3475 87.8581 57.2979V72.3867C87.8581 77.3371 85.1596 81.8982 80.8088 84.3015L66.3301 92.2991C62.1936 94.584 57.1646 94.584 53.028 92.2991L38.5494 84.3015C34.1986 81.8982 31.5 77.3371 31.5 72.3867V57.2979C31.5 52.3475 34.1986 47.7864 38.5493 45.3832L53.028 37.3856Z" fill="white"/>
<path d="M57.4283 55.9053C58.8192 55.167 60.5102 55.167 61.9011 55.9053L66.7696 58.4895C68.2325 59.266 69.1399 60.7398 69.1399 62.3393V67.2148C69.1399 68.8144 68.2325 70.2881 66.7696 71.0647L61.9011 73.6489C60.5102 74.3872 58.8192 74.3872 57.4283 73.6489L52.5598 71.0647C51.0969 70.2881 50.1895 68.8144 50.1895 67.2148V62.3393C50.1895 60.7398 51.0969 59.266 52.5598 58.4895L57.4283 55.9053Z" fill="#F11818"/>
</svg>
